<svg xmlns="http://www.w3.org/2000/svg" viewBox="0 0 474.81 97.09"><title>logo-bnl</title><g id="a6f2f019-e175-439b-9393-dd04aa3fc040" data-name="Calque 2"><g id="fad43937-2348-419d-9a91-c431ab18dd37" data-name="Calque 1"><path d="M40.8,0c1,.21,2.07.45,3.11.63A25,25,0,0,1,56.37,6.48a23.6,23.6,0,0,1,6.52,8.44,23.5,23.5,0,0,1,1.57,12.3,22,22,0,0,1-4.4,11.05,19.19,19.19,0,0,1-5.89,5.24c-1.12.62-2.35,1-3.53,1.55l-1.08.42c1.44.55,2.64,1,3.81,1.47a24.52,24.52,0,0,1,11.38,8.89,22.42,22.42,0,0,1,3.5,10.45,31.09,31.09,0,0,1-.77,11.33,26,26,0,0,1-5.25,10.24A24.83,24.83,0,0,1,50,95.57a37.34,37.34,0,0,1-10.46,1.32L2,97.08c-2.13,0-1.89.28-1.89-1.85V1.51C.07,1,0,.5,0,0ZM38.91,33.25A3.52,3.52,0,0,0,39,32.8c0-3.44,0-6.89,0-10.34a7.39,7.39,0,0,0-.35-2c-1.44-4.72-5.15-6.85-9.77-7-2.81-.1-5.63,0-8.44,0-.83,0-1.14.17-1.14,1.09,0,5.57,0,11.13,0,16.69v2.06h6.79V22.63c0-2.83,0-2.83,2.81-2.82a3,3,0,0,1,3.3,3.3c0,2.94,0,5.88,0,8.82v1.32ZM26.07,58.18c-1.94,0-3.74,0-5.53,0-.84,0-1.08.27-1.08,1.09,0,5.93-.09,11.87-.2,17.8,0,1,.31,1.23,1.24,1.22,5.33,0,10.67,0,16,0,.3,0,.6-.06,1-.09,0-1.84,0-3.58,0-5.31,0-.8-.21-1-1-1-3.06,0-6.13,0-9.19,0-1.16,0-1.21,0-1.21-1.25V58.18Z" style="fill:#57b04d"/><path d="M103.13,33.28V11.64h4.49a16.59,16.59,0,0,1,2.13.12,7.47,7.47,0,0,1,1.82.5,4,4,0,0,1,1.46,1,4.37,4.37,0,0,1,.92,1.61,7.34,7.34,0,0,1,.34,2.38,4.05,4.05,0,0,1-.8,2.67,5.39,5.39,0,0,1-2.5,1.54q3.89.93,3.88,5.46a6.53,6.53,0,0,1-1.57,4.82,6.57,6.57,0,0,1-4.8,1.56Zm4.38-13.13h.75a2.13,2.13,0,0,0,1-.23,1.44,1.44,0,0,0,.62-.67,3.22,3.22,0,0,0,.29-.94,6.87,6.87,0,0,0,.09-1.19,5.27,5.27,0,0,0-.08-.95,5.16,5.16,0,0,0-.17-.68,1.15,1.15,0,0,0-.33-.46,2.38,2.38,0,0,0-.41-.27,1.58,1.58,0,0,0-.53-.14l-.57,0h-.68Zm0,10H108a3.89,3.89,0,0,0,1.39-.2,1.55,1.55,0,0,0,.81-.68,3.13,3.13,0,0,0,.36-1.08,10.15,10.15,0,0,0,.1-1.63A4.91,4.91,0,0,0,110,24a2.25,2.25,0,0,0-2-.94h-.44Z" style="fill:#4fb24e"/><path d="M116.78,16.22V12.43h4.08v3.79Zm0,17.06V17.59h4.08V33.28Z" style="fill:#4fb24e"/><path d="M123.17,33.28V11.64h4.07v7a4,4,0,0,1,1.18-1,2.93,2.93,0,0,1,3.78.75,4,4,0,0,1,.94,2.63v9.28a3.42,3.42,0,0,1-.9,2.35,2.92,2.92,0,0,1-2.25,1,3.14,3.14,0,0,1-1.54-.41,3.5,3.5,0,0,1-1.21-1.12v1.18Zm5.9-3.83V21.33c0-.69-.23-1-.68-1a.82.82,0,0,0-.48.21,2,2,0,0,0-.35.32l-.32.41V29.6l.08.1a1.18,1.18,0,0,0,.08.12l.1.12.11.14.1.12a.46.46,0,0,0,.13.12l.13.1a.34.34,0,0,0,.14.08l.14.05a.32.32,0,0,0,.14,0,.55.55,0,0,0,.45-.2.76.76,0,0,0,.2-.4A3.89,3.89,0,0,0,129.07,29.45Z" style="fill:#4fb24e"/><path d="M135.26,33.28V11.64h4.07V33.28Z" style="fill:#4fb24e"/><path d="M141.65,16.22V12.43h4.08v3.79Zm0,17.06V17.59h4.08V33.28Z" style="fill:#4fb24e"/><path d="M147.83,29.21V22.53a5.83,5.83,0,0,1,1.19-3.9,4.64,4.64,0,0,1,3.72-1.39,4.71,4.71,0,0,1,3.75,1.39,5.73,5.73,0,0,1,1.22,3.9v6.68a4,4,0,0,1-1.46,3.19,5.29,5.29,0,0,1-3.51,1.23,5.61,5.61,0,0,1-2.43-.53,4.38,4.38,0,0,1-1.79-1.57A4.06,4.06,0,0,1,147.83,29.21Zm5.84,0V21.49q0-1.2-.93-1.2c-.55,0-.83.4-.83,1.2v7.76a2.76,2.76,0,0,0,0,.44,1.92,1.92,0,0,0,.09.41.64.64,0,0,0,.25.36.84.84,0,0,0,.47.12C153.36,30.58,153.67,30.14,153.67,29.25Z" style="fill:#4fb24e"/><path d="M160.07,27.89v-7.6h-1.16v-2.7h1.16V12.43h4.07v5.16h2v2.7h-2v8.58a1.63,1.63,0,0,0,.24,1,1,1,0,0,0,.86.32,7.85,7.85,0,0,0,1.19-.08v3.14a9.85,9.85,0,0,1-2.58.24,4.27,4.27,0,0,1-1.28-.17,3,3,0,0,1-1-.45,2.71,2.71,0,0,1-.68-.71,4.38,4.38,0,0,1-.45-.89,6.24,6.24,0,0,1-.25-1c-.06-.4-.1-.77-.12-1.12S160.07,28.34,160.07,27.89Z" style="fill:#4fb24e"/><path d="M167.87,33.28V11.64h4.07v7.07a4.79,4.79,0,0,1,1.41-1.07,3.66,3.66,0,0,1,1.69-.41,2.29,2.29,0,0,1,1.49.53,3.14,3.14,0,0,1,1,1.3,4.13,4.13,0,0,1,.32,1.58V33.28h-4.07V21.49a1.11,1.11,0,0,0,0-.26c0-.07,0-.16,0-.27a.89.89,0,0,0,0-.26l-.1-.2a.35.35,0,0,0-.16-.16.62.62,0,0,0-.25-.05,1,1,0,0,0-.52.2,2.2,2.2,0,0,0-.4.32l-.34.39V33.28Z" style="fill:#4fb24e"/><path d="M179.83,29.21V22.53a5.79,5.79,0,0,1,1.19-3.9,5.49,5.49,0,0,1,7.31,0,5.82,5.82,0,0,1,1.19,3.91v3.25H183.9v3.47c0,.89.26,1.33.78,1.33s.84-.48.84-1.42V27.44h4v1.77a4,4,0,0,1-1.42,3.19,5.09,5.09,0,0,1-3.42,1.23,5,5,0,0,1-3.43-1.24A4,4,0,0,1,179.83,29.21ZM183.44,16l-3.35-5.31h4.19L185.92,16Zm.46,7.65h1.58V21.49c0-.8-.27-1.2-.8-1.2s-.78.4-.78,1.2Z" style="fill:#4fb24e"/><path d="M196.87,37.74V32.21a3.78,3.78,0,0,1-1.12,1,2.67,2.67,0,0,1-1.38.39,2.83,2.83,0,0,1-2.23-1,3.53,3.53,0,0,1-.9-2.38V20.58a3.42,3.42,0,0,1,.9-2.35,2.86,2.86,0,0,1,2.23-1,2.56,2.56,0,0,1,1.4.41,3.28,3.28,0,0,1,1.1,1.12V17.59H201V37.74Zm0-8.08V21.15l-.27-.37a3.49,3.49,0,0,0-.32-.3.79.79,0,0,0-.43-.19.44.44,0,0,0-.38.18.82.82,0,0,0-.16.36c0,.12,0,.28,0,.47v8.27c0,.67.19,1,.56,1a.57.57,0,0,0,.29-.09.94.94,0,0,0,.31-.27,2.92,2.92,0,0,0,.23-.28C196.72,29.88,196.79,29.79,196.87,29.66Z" style="fill:#4fb24e"/><path d="M203.14,30.24V17.59h4.07V29.25c0,.89.19,1.33.56,1.33s.78-.3,1.27-.89V17.59h4.07V33.28H209V31.92a5.29,5.29,0,0,1-1.44,1.23,3.3,3.3,0,0,1-1.67.48,2.4,2.4,0,0,1-2-1.05A3.82,3.82,0,0,1,203.14,30.24Z" style="fill:#4fb24e"/><path d="M215.19,29.21V22.53a5.79,5.79,0,0,1,1.2-3.9,4.51,4.51,0,0,1,3.65-1.4,4.56,4.56,0,0,1,3.66,1.39,5.87,5.87,0,0,1,1.19,3.91v3.25h-5.62v3.47c0,.89.25,1.33.77,1.33s.85-.48.85-1.42V27.44h4v1.77a4,4,0,0,1-1.43,3.19,5.35,5.35,0,0,1-6.84,0A4,4,0,0,1,215.19,29.21Zm4.08-5.56h1.58V21.49q0-1.2-.81-1.2c-.52,0-.77.4-.77,1.2Z" style="fill:#4fb24e"/><path d="M231.71,33.28V17.59h4.07v1.1a4.3,4.3,0,0,1,1.4-1.05,3.76,3.76,0,0,1,1.7-.4,2.33,2.33,0,0,1,1.49.52,3.18,3.18,0,0,1,1,1.29,4.13,4.13,0,0,1,.32,1.58V33.28H237.6V21.34c0-.7-.23-1.05-.68-1.05l-.15,0a.52.52,0,0,0-.16.06l-.14.07a.6.6,0,0,0-.14.11l-.13.1-.13.13-.11.12-.09.12-.09.09V33.28Z" style="fill:#4fb24e"/><path d="M250.22,33.28l-.4-1.62a2.51,2.51,0,0,1-1.15,1.53,4.08,4.08,0,0,1-2,.44,3.25,3.25,0,0,1-1.53-.34,2.62,2.62,0,0,1-1-.9,4.51,4.51,0,0,1-.54-1.23,5.22,5.22,0,0,1-.18-1.38,6.52,6.52,0,0,1,.17-1.51A6.89,6.89,0,0,1,244,27a4.49,4.49,0,0,1,.73-1,8.49,8.49,0,0,1,.9-.84,9.4,9.4,0,0,1,1.13-.71c.46-.24.87-.45,1.24-.61s.82-.36,1.36-.59V21.94a2.88,2.88,0,0,0-.2-1.24.73.73,0,0,0-.7-.41,1,1,0,0,0-.55.14.78.78,0,0,0-.3.42,2.68,2.68,0,0,0-.11.5c0,.14,0,.34,0,.59v.89h-4a5.82,5.82,0,0,1,1.37-4.15,5.17,5.17,0,0,1,4-1.45,4.42,4.42,0,0,1,3.18,1.31,4.16,4.16,0,0,1,1.36,3.11v7.46a18.85,18.85,0,0,0,.52,4.17Zm-.82-3.55V25.87a4.58,4.58,0,0,0-2,3.54,1.61,1.61,0,0,0,.19.82.65.65,0,0,0,.63.35.88.88,0,0,0,.5-.17,1.49,1.49,0,0,0,.36-.28Z" style="fill:#4fb24e"/><path d="M255.94,27.89v-7.6h-1.16v-2.7h1.16V12.43H260v5.16h2v2.7h-2v8.58a1.63,1.63,0,0,0,.24,1,1,1,0,0,0,.86.32,7.85,7.85,0,0,0,1.19-.08v3.14a9.85,9.85,0,0,1-2.58.24,4.38,4.38,0,0,1-1.29-.17,3.05,3.05,0,0,1-1-.45,2.56,2.56,0,0,1-.68-.71,4.38,4.38,0,0,1-.45-.89,5.4,5.4,0,0,1-.25-1c-.06-.4-.1-.77-.12-1.12S255.94,28.34,255.94,27.89Z" style="fill:#4fb24e"/><path d="M263.76,16.22V12.43h4.07v3.79Zm0,17.06V17.59h4.07V33.28Z" style="fill:#4fb24e"/><path d="M269.94,29.21V22.53a5.83,5.83,0,0,1,1.19-3.9,4.62,4.62,0,0,1,3.72-1.39,4.74,4.74,0,0,1,3.75,1.39,5.73,5.73,0,0,1,1.22,3.9v6.68a4,4,0,0,1-1.47,3.19,5.25,5.25,0,0,1-3.5,1.23,5.61,5.61,0,0,1-2.43-.53,4.48,4.48,0,0,1-1.8-1.57A4.13,4.13,0,0,1,269.94,29.21Zm5.84,0V21.49q0-1.2-.93-1.2t-.84,1.2v7.76c0,.18,0,.33,0,.44a1.92,1.92,0,0,0,.09.41.65.65,0,0,0,.26.36.82.82,0,0,0,.47.12C275.47,30.58,275.78,30.14,275.78,29.25Z" style="fill:#4fb24e"/><path d="M281.9,33.28V17.59H286v1.1a4.3,4.3,0,0,1,1.4-1.05,3.76,3.76,0,0,1,1.7-.4,2.33,2.33,0,0,1,1.49.52,3.18,3.18,0,0,1,1,1.29,4.13,4.13,0,0,1,.32,1.58V33.28h-4.08V21.34c0-.7-.22-1.05-.67-1.05l-.15,0a.44.44,0,0,0-.16.06l-.14.07a.6.6,0,0,0-.14.11l-.13.1-.13.13-.11.12-.09.12-.09.09V33.28Z" style="fill:#4fb24e"/><path d="M300.41,33.28l-.4-1.62a2.51,2.51,0,0,1-1.15,1.53,4.08,4.08,0,0,1-2,.44,3.25,3.25,0,0,1-1.53-.34,2.62,2.62,0,0,1-1-.9,4.23,4.23,0,0,1-.54-1.23,5.22,5.22,0,0,1-.18-1.38,6.52,6.52,0,0,1,.17-1.51,6.89,6.89,0,0,1,.43-1.24,4.2,4.2,0,0,1,.73-1,8.49,8.49,0,0,1,.9-.84,9.4,9.4,0,0,1,1.13-.71c.46-.24.87-.45,1.24-.61s.82-.36,1.36-.59V21.94a2.88,2.88,0,0,0-.2-1.24.73.73,0,0,0-.7-.41,1,1,0,0,0-.55.14.78.78,0,0,0-.3.42,2.68,2.68,0,0,0-.11.5c0,.14,0,.34,0,.59v.89h-4a5.82,5.82,0,0,1,1.37-4.15,5.17,5.17,0,0,1,4-1.45,4.44,4.44,0,0,1,3.18,1.31,4.16,4.16,0,0,1,1.36,3.11v7.46a18.85,18.85,0,0,0,.52,4.17Zm-.82-3.55V25.87a4.58,4.58,0,0,0-2,3.54,1.61,1.61,0,0,0,.19.82.65.65,0,0,0,.63.35.88.88,0,0,0,.5-.17,1.49,1.49,0,0,0,.36-.28Z" style="fill:#4fb24e"/><path d="M305.87,33.28V11.64H310V33.28Z" style="fill:#4fb24e"/><path d="M312.05,29.21V22.53a5.79,5.79,0,0,1,1.2-3.9,4.51,4.51,0,0,1,3.65-1.4,4.56,4.56,0,0,1,3.66,1.39,5.87,5.87,0,0,1,1.19,3.91v3.25h-5.62v3.47c0,.89.25,1.33.77,1.33s.85-.48.85-1.42V27.44h4v1.77a4,4,0,0,1-1.43,3.19,5.35,5.35,0,0,1-6.84,0A4,4,0,0,1,312.05,29.21Zm4.08-5.56h1.58V21.49q0-1.2-.81-1.2c-.52,0-.77.4-.77,1.2Z" style="fill:#4fb24e"/><path d="M328.39,30.28V21a4,4,0,0,1,.94-2.63,2.93,2.93,0,0,1,3.78-.75,4,4,0,0,1,1.18,1v-7h4.07V33.28h-4.07V32.1a3.59,3.59,0,0,1-1.21,1.12,3.14,3.14,0,0,1-1.54.41,2.92,2.92,0,0,1-2.25-1A3.42,3.42,0,0,1,328.39,30.28Zm5.9-.57V21.2c-.46-.61-.85-.91-1.15-.91s-.68.35-.68,1v8.12a3.89,3.89,0,0,0,0,.53.76.76,0,0,0,.2.4.55.55,0,0,0,.45.2C333.49,30.58,333.87,30.29,334.29,29.71Z" style="fill:#4fb24e"/><path d="M340.45,29.21V22.53a5.79,5.79,0,0,1,1.2-3.9,5.49,5.49,0,0,1,7.31,0,5.87,5.87,0,0,1,1.19,3.91v3.25h-5.62v3.47c0,.89.25,1.33.77,1.33s.85-.48.85-1.42V27.44h4v1.77a4,4,0,0,1-1.43,3.19,5.35,5.35,0,0,1-6.84,0A4,4,0,0,1,340.45,29.21Zm4.08-5.56h1.58V21.49q0-1.2-.81-1.2c-.52,0-.77.4-.77,1.2Z" style="fill:#4fb24e"/><path d="M357.13,33.28V11.64h4.4V30.28h4.33v3Z" style="fill:#4fb24e"/><path d="M367,30.24V17.59h4.07V29.25c0,.89.19,1.33.56,1.33s.78-.3,1.27-.89V17.59H377V33.28h-4.07V31.92a5.29,5.29,0,0,1-1.44,1.23,3.3,3.3,0,0,1-1.67.48,2.4,2.4,0,0,1-2-1.05A3.82,3.82,0,0,1,367,30.24Z" style="fill:#4fb24e"/><path d="M378.54,33.28l2.9-8.27-2.91-7.42h4l1.15,4.92c.11-.46.29-1.24.55-2.35l.6-2.57h4L386,25l2.87,8.27h-4l-1.16-4.93-1.14,4.93Z" style="fill:#4fb24e"/><path d="M390,29.21V22.53a5.85,5.85,0,0,1,1.19-3.9,5.49,5.49,0,0,1,7.31,0,5.82,5.82,0,0,1,1.19,3.91v3.25h-5.62v3.47c0,.89.26,1.33.78,1.33s.84-.48.84-1.42V27.44h4v1.77a4,4,0,0,1-1.42,3.19,5.37,5.37,0,0,1-6.85,0A4,4,0,0,1,390,29.21Zm4.07-5.56h1.59V21.49c0-.8-.28-1.2-.81-1.2s-.78.4-.78,1.2Z" style="fill:#4fb24e"/><path d="M401.54,33.28V17.59h4.07v1.12A4.45,4.45,0,0,1,407,17.64a3.36,3.36,0,0,1,1.62-.41,2.4,2.4,0,0,1,1.45.5A3.27,3.27,0,0,1,411,19a4.75,4.75,0,0,1,1.46-1.29,3.68,3.68,0,0,1,1.83-.48,2.31,2.31,0,0,1,1.5.53,3.37,3.37,0,0,1,1,1.3,4,4,0,0,1,.33,1.58V33.28h-4.08V21.45c0-.15,0-.26,0-.36s0-.21-.06-.35a.56.56,0,0,0-.18-.33.49.49,0,0,0-.34-.12c-.29,0-.66.3-1.11.89v12.1H407.3V21.42c0-.75-.18-1.13-.55-1.13s-.69.3-1.15.91V33.28Z" style="fill:#4fb24e"/><path d="M419.36,33.28V11.64h4.07v7a4,4,0,0,1,1.18-1,2.93,2.93,0,0,1,3.78.75,4,4,0,0,1,.94,2.63v9.28a3.42,3.42,0,0,1-.9,2.35,2.92,2.92,0,0,1-2.25,1,3.14,3.14,0,0,1-1.54-.41,3.59,3.59,0,0,1-1.21-1.12v1.18Zm5.9-3.83V21.33c0-.69-.23-1-.68-1a.82.82,0,0,0-.48.21,2,2,0,0,0-.35.32l-.32.41V29.6l.08.1.08.12.1.12.11.14.1.12a.46.46,0,0,0,.13.12l.13.1a.34.34,0,0,0,.14.08l.14.05a.35.35,0,0,0,.14,0,.54.54,0,0,0,.45-.2.76.76,0,0,0,.2-.4A3.89,3.89,0,0,0,425.26,29.45Z" style="fill:#4fb24e"/><path d="M431.23,29.21V22.53a5.83,5.83,0,0,1,1.19-3.9,4.64,4.64,0,0,1,3.72-1.39,4.74,4.74,0,0,1,3.75,1.39,5.73,5.73,0,0,1,1.22,3.9v6.68a4,4,0,0,1-1.46,3.19,5.29,5.29,0,0,1-3.51,1.23,5.61,5.61,0,0,1-2.43-.53,4.48,4.48,0,0,1-1.8-1.57A4.13,4.13,0,0,1,431.23,29.21Zm5.84,0V21.49q0-1.2-.93-1.2c-.56,0-.83.4-.83,1.2v7.76c0,.18,0,.33,0,.44a3,3,0,0,0,.1.41.6.6,0,0,0,.25.36.84.84,0,0,0,.47.12C436.76,30.58,437.07,30.14,437.07,29.25Z" style="fill:#4fb24e"/><path d="M443.1,30.24V17.59h4.08V29.25c0,.89.18,1.33.56,1.33s.78-.3,1.26-.89V17.59h4.08V33.28H449V31.92a5.4,5.4,0,0,1-1.43,1.23,3.3,3.3,0,0,1-1.67.48,2.39,2.39,0,0,1-2-1.05A3.83,3.83,0,0,1,443.1,30.24Z" style="fill:#4fb24e"/><path d="M455.35,33.28V17.59h4v1.27a2.63,2.63,0,0,1,2.18-1.5,7.85,7.85,0,0,1,1.1.12V20.9c-.75-.08-1.28-.12-1.58-.12a1.57,1.57,0,0,0-1.27.51,2.23,2.23,0,0,0-.43,1.46V33.28Z" style="fill:#4fb24e"/><path d="M466.82,29.21c0,.19.13.35.41.48a5,5,0,0,0,1.08.32c.45.08.94.17,1.47.25s1.08.21,1.62.35a9,9,0,0,1,1.47.51A2.68,2.68,0,0,1,474,32a2,2,0,0,1,.42,1.26,4.9,4.9,0,0,1-.29,1.75,3.18,3.18,0,0,1-.79,1.2,3.51,3.51,0,0,1-1.22.73,6.36,6.36,0,0,1-1.47.38,12.19,12.19,0,0,1-1.67.1q-5.82,0-5.82-2.82a3.44,3.44,0,0,1,.46-1.66,4.12,4.12,0,0,1,1.2-1.35,7.16,7.16,0,0,1-.95-.59c-.31-.23-.46-.45-.46-.66,0-.46.53-1.36,1.61-2.72a9.16,9.16,0,0,1-1.24-4.5,8.43,8.43,0,0,1,.27-2.17,6.59,6.59,0,0,1,.83-1.85,3.85,3.85,0,0,1,1.51-1.34,4.65,4.65,0,0,1,2.19-.49,3.68,3.68,0,0,1,2.81,1,3.76,3.76,0,0,1,3-1h.51l-.34,2.9a2.39,2.39,0,0,0-1.73.52,5.75,5.75,0,0,1,.51,2.73,6.5,6.5,0,0,1-.32,2,5.63,5.63,0,0,1-.92,1.71,4.23,4.23,0,0,1-1.54,1.17,4.83,4.83,0,0,1-2.07.44,4,4,0,0,1-.54,0c-.22,0-.4-.07-.55-.1l-.22,0A2.48,2.48,0,0,0,466.82,29.21Zm.36,3.12h-.29a3,3,0,0,0-.55,1.51c0,.47.9.71,2.69.71h.07c.92,0,1.38-.27,1.38-.82a.9.9,0,0,0-.16-.53,1.08,1.08,0,0,0-.46-.37,6,6,0,0,0-.61-.25,4.25,4.25,0,0,0-.74-.14l-.7-.07Zm1.26-6.65q1,0,1-2.79c0-1.91-.31-2.86-.93-2.86a.71.71,0,0,0-.41.12.78.78,0,0,0-.28.37,4.2,4.2,0,0,0-.17.5,4.43,4.43,0,0,0-.09.65c0,.26,0,.49,0,.67s0,.43,0,.71C467.5,24.8,467.81,25.68,468.44,25.68Z" style="fill:#4fb24e"/><path d="M103.13,78.27V56.62h4.4V65.5h3.16V56.62h4.43V78.27h-4.43V68.61h-3.16v9.66Z" style="fill:#6e6e71"/><path d="M117.57,61.21V57.42h4.07v3.79Zm0,17.06V62.58h4.07V78.27Z" style="fill:#6e6e71"/><path d="M123.26,74.48l3.12-1.1c.08.24.15.42.2.56s.13.32.25.57a3,3,0,0,0,.33.59,2,2,0,0,0,.43.38,1,1,0,0,0,.55.17c.51,0,.76-.3.76-.89a1.66,1.66,0,0,0-.15-.67,4,4,0,0,0-.32-.59,4.32,4.32,0,0,0-.56-.64c-.27-.26-.48-.46-.63-.59s-.4-.34-.76-.65l-.66-.56a12,12,0,0,1-2-2.2,4.22,4.22,0,0,1-.73-2.41,3.91,3.91,0,0,1,.43-1.85,3.51,3.51,0,0,1,1.15-1.32,5.59,5.59,0,0,1,1.63-.78,6.54,6.54,0,0,1,1.89-.27,4,4,0,0,1,1.69.37,4.77,4.77,0,0,1,1.42,1,7,7,0,0,1,1.06,1.4,7.06,7.06,0,0,1,.69,1.63l-2.93,1q-.14-.36-.24-.6a3.89,3.89,0,0,0-.31-.61,3.22,3.22,0,0,0-.41-.61,1.78,1.78,0,0,0-.49-.4,1.11,1.11,0,0,0-.6-.18.8.8,0,0,0-.66.3,1.07,1.07,0,0,0-.24.69,1.88,1.88,0,0,0,.59,1.18,15.54,15.54,0,0,0,1.61,1.51l.75.66c.41.37.76.7,1,1a12.8,12.8,0,0,1,.88,1.08,4.83,4.83,0,0,1,.68,1.26,3.84,3.84,0,0,1,.24,1.32,4.06,4.06,0,0,1-1.35,3.14,4.64,4.64,0,0,1-3.26,1.24,4.76,4.76,0,0,1-3.19-1.14A5.91,5.91,0,0,1,123.26,74.48Z" style="fill:#6e6e71"/><path d="M134.7,72.88v-7.6h-1.16v-2.7h1.16V57.42h4.08v5.16h2v2.7h-2v8.58a1.63,1.63,0,0,0,.24,1,1,1,0,0,0,.86.31,8,8,0,0,0,1.18-.07v3.14a9.81,9.81,0,0,1-2.57.24,4.29,4.29,0,0,1-1.29-.17,3.11,3.11,0,0,1-1-.45,2.71,2.71,0,0,1-.68-.71,4.9,4.9,0,0,1-.44-.89,5.37,5.37,0,0,1-.26-1c-.06-.4-.1-.77-.12-1.12S134.7,73.32,134.7,72.88Z" style="fill:#6e6e71"/><path d="M142.31,74.19V67.52a5.76,5.76,0,0,1,1.19-3.9,4.62,4.62,0,0,1,3.72-1.39A4.7,4.7,0,0,1,151,63.62a5.67,5.67,0,0,1,1.23,3.9v6.67a4,4,0,0,1-1.47,3.2,5.25,5.25,0,0,1-3.5,1.23,5.61,5.61,0,0,1-2.43-.53,4.41,4.41,0,0,1-1.8-1.57A4.14,4.14,0,0,1,142.31,74.19Zm5.84,0V66.47c0-.79-.31-1.19-.93-1.19s-.84.4-.84,1.19v7.77c0,.18,0,.33,0,.44a1.92,1.92,0,0,0,.09.41.64.64,0,0,0,.25.36.88.88,0,0,0,.48.12C147.84,75.57,148.15,75.13,148.15,74.24Z" style="fill:#6e6e71"/><path d="M154.27,78.27V62.58h4v1.27a2.61,2.61,0,0,1,2.17-1.5,7.7,7.7,0,0,1,1.1.12v3.41c-.75-.08-1.27-.12-1.58-.12a1.54,1.54,0,0,0-1.26.52,2.18,2.18,0,0,0-.43,1.46V78.27Z" style="fill:#6e6e71"/><path d="M162.92,61.21V57.42H167v3.79Zm0,17.06V62.58H167V78.27Z" style="fill:#6e6e71"/><path d="M169.1,74.26V67.52a5.79,5.79,0,0,1,1.2-3.9,4.51,4.51,0,0,1,3.65-1.4,4.56,4.56,0,0,1,3.66,1.39,5.86,5.86,0,0,1,1.19,3.91v1.37h-4V67.1a4.22,4.22,0,0,0-.17-1.38.65.65,0,0,0-.68-.44c-.52,0-.77.4-.77,1.19v7.77c0,.89.25,1.33.77,1.33a.84.84,0,0,0,.47-.12.72.72,0,0,0,.25-.41,3,3,0,0,0,.1-.6c0-.2,0-.49,0-.86V71.91h4v2.35a4.1,4.1,0,0,1-.68,2.31,4.19,4.19,0,0,1-1.78,1.53,5.46,5.46,0,0,1-2.39.52,5.09,5.09,0,0,1-3.42-1.21A3.94,3.94,0,0,1,169.1,74.26Z" style="fill:#6e6e71"/><path d="M186.87,78.27l-.39-1.62a2.54,2.54,0,0,1-1.15,1.53,4.12,4.12,0,0,1-2,.44,3.21,3.21,0,0,1-1.52-.34,2.49,2.49,0,0,1-1-.9,4.08,4.08,0,0,1-.54-1.23,5.22,5.22,0,0,1-.18-1.38,6.52,6.52,0,0,1,.17-1.51,5.63,5.63,0,0,1,.43-1.24,4,4,0,0,1,.72-1,8.52,8.52,0,0,1,.91-.84,7.21,7.21,0,0,1,1.13-.71c.46-.24.87-.45,1.23-.61s.82-.36,1.37-.59V66.93a2.82,2.82,0,0,0-.21-1.24.72.72,0,0,0-.7-.41,1,1,0,0,0-.55.14.69.69,0,0,0-.29.42,2.06,2.06,0,0,0-.11.5,4.47,4.47,0,0,0,0,.59v.89h-4a5.82,5.82,0,0,1,1.37-4.15,5.17,5.17,0,0,1,4-1.45,4.42,4.42,0,0,1,3.18,1.31,4.17,4.17,0,0,1,1.37,3.11V74.1a18.28,18.28,0,0,0,.52,4.17Zm-.82-3.55V70.86a4.56,4.56,0,0,0-2,3.54,1.74,1.74,0,0,0,.18.82.68.68,0,0,0,.64.35.91.91,0,0,0,.5-.17,2.05,2.05,0,0,0,.36-.28C185.8,75,185.91,74.91,186.05,74.72Z" style="fill:#6e6e71"/><path d="M192.34,78.27V56.62h4.07V78.27Z" style="fill:#6e6e71"/><path d="M203.67,78.27V62.58h4.07v1.1a4.41,4.41,0,0,1,1.4-1,3.76,3.76,0,0,1,1.7-.4,2.33,2.33,0,0,1,1.49.52,3.18,3.18,0,0,1,1,1.29,4.13,4.13,0,0,1,.32,1.58V78.27h-4.07V66.33c0-.7-.23-1-.68-1l-.15,0a.52.52,0,0,0-.16.06l-.14.07a.6.6,0,0,0-.14.11l-.13.1-.13.13-.1.12-.1.12-.09.09V78.27Z" style="fill:#6e6e71"/><path d="M215.63,74.19V67.52a5.85,5.85,0,0,1,1.19-3.9,5.49,5.49,0,0,1,7.31,0,5.8,5.8,0,0,1,1.19,3.91v3.25H219.7v3.47c0,.89.26,1.33.78,1.33s.84-.48.84-1.42V72.43h4v1.76a4,4,0,0,1-1.42,3.2,5.37,5.37,0,0,1-6.85,0A4,4,0,0,1,215.63,74.19Zm4.07-5.55h1.59V66.47c0-.79-.28-1.19-.81-1.19s-.78.4-.78,1.19Z" style="fill:#6e6e71"/><path d="M228.68,78.27l-2.3-15.69h3.39L231,72.26l1.31-9.68h3.07l1.18,9.87L238,62.58h3.14l-2.33,15.69h-3.51L233.79,69l-1.6,9.27Z" style="fill:#6e6e71"/><path d="M241.9,74.48l3.12-1.1.19.56c0,.13.13.32.25.57a3,3,0,0,0,.34.59,2.25,2.25,0,0,0,.42.38,1,1,0,0,0,.55.17c.51,0,.76-.3.76-.89a1.66,1.66,0,0,0-.15-.67,4,4,0,0,0-.31-.59,4.52,4.52,0,0,0-.57-.64l-.62-.59-.76-.65-.67-.56a11.86,11.86,0,0,1-2-2.2,4.23,4.23,0,0,1-.74-2.41,3.91,3.91,0,0,1,.43-1.85,3.54,3.54,0,0,1,1.16-1.32,5.53,5.53,0,0,1,1.62-.78,6.54,6.54,0,0,1,1.89-.27,4,4,0,0,1,1.7.37,4.9,4.9,0,0,1,1.42,1A7.36,7.36,0,0,1,251,65a8.06,8.06,0,0,1,.69,1.63l-2.93,1q-.15-.36-.24-.6c-.07-.16-.17-.36-.31-.61a3.77,3.77,0,0,0-.41-.61,2.14,2.14,0,0,0-.49-.4,1.16,1.16,0,0,0-.61-.18.8.8,0,0,0-.66.3,1.12,1.12,0,0,0-.23.69,1.83,1.83,0,0,0,.59,1.18A14.57,14.57,0,0,0,248,68.9l.75.66c.4.37.75.7,1,1a12.83,12.83,0,0,1,.89,1.08,4.79,4.79,0,0,1,.67,1.26,3.84,3.84,0,0,1,.24,1.32,4.06,4.06,0,0,1-1.35,3.14A4.62,4.62,0,0,1,247,78.62a4.78,4.78,0,0,1-3.19-1.14A6,6,0,0,1,241.9,74.48Z" style="fill:#6e6e71"/><path d="M253.07,82.73V62.58h4.08v1.06a3.87,3.87,0,0,1,1.18-1,2.83,2.83,0,0,1,1.44-.39,2.89,2.89,0,0,1,2.33,1.14,4,4,0,0,1,.95,2.63v9.28a3.43,3.43,0,0,1-.91,2.35,2.89,2.89,0,0,1-2.25,1,3.08,3.08,0,0,1-1.53-.41,3.41,3.41,0,0,1-1.21-1.12v5.64Zm5.9-8.29V66.32c0-.69-.22-1-.67-1s-.69.3-1.15.91V74.7c.42.58.8.87,1.15.87a.56.56,0,0,0,.45-.2.74.74,0,0,0,.19-.4A3.89,3.89,0,0,0,259,74.44Z" style="fill:#6e6e71"/><path d="M271.5,78.27l-.4-1.62A2.51,2.51,0,0,1,270,78.18a4.08,4.08,0,0,1-2,.44,3.19,3.19,0,0,1-1.52-.34,2.59,2.59,0,0,1-1-.9,4.65,4.65,0,0,1-.54-1.23,5.22,5.22,0,0,1-.18-1.38,6.52,6.52,0,0,1,.17-1.51A6.89,6.89,0,0,1,265.3,72a4.28,4.28,0,0,1,.73-1,8.49,8.49,0,0,1,.9-.84,7.87,7.87,0,0,1,1.14-.71c.46-.24.87-.45,1.23-.61s.82-.36,1.36-.59V66.93a2.85,2.85,0,0,0-.2-1.24.73.73,0,0,0-.7-.41,1,1,0,0,0-.55.14.74.74,0,0,0-.3.42,3.82,3.82,0,0,0-.11.5c0,.14,0,.34,0,.59v.89h-4a5.82,5.82,0,0,1,1.37-4.15,5.17,5.17,0,0,1,4-1.45,4.42,4.42,0,0,1,3.18,1.31,4.16,4.16,0,0,1,1.36,3.11V74.1a18.85,18.85,0,0,0,.52,4.17Zm-.82-3.55V70.86a4.58,4.58,0,0,0-2,3.54,1.63,1.63,0,0,0,.19.82.65.65,0,0,0,.63.35.88.88,0,0,0,.5-.17,1.49,1.49,0,0,0,.36-.28Z" style="fill:#6e6e71"/><path d="M277,82.73V62.58H281v1.06a4,4,0,0,1,1.17-1,2.93,2.93,0,0,1,3.78.75,4,4,0,0,1,.95,2.63v9.28a3.43,3.43,0,0,1-.91,2.35,2.92,2.92,0,0,1-2.25,1,3.08,3.08,0,0,1-1.53-.41A3.41,3.41,0,0,1,281,77.09v5.64Zm5.9-8.29V66.32c0-.69-.22-1-.68-1-.3,0-.68.3-1.14.91V74.7q.63.87,1.14.87a.57.57,0,0,0,.46-.2.74.74,0,0,0,.19-.4A3.89,3.89,0,0,0,282.85,74.44Z" style="fill:#6e6e71"/><path d="M288.82,74.19V67.52a5.79,5.79,0,0,1,1.2-3.9,5.49,5.49,0,0,1,7.31,0,5.86,5.86,0,0,1,1.19,3.91v3.25H292.9v3.47c0,.89.26,1.33.77,1.33s.85-.48.85-1.42V72.43h4v1.76a4,4,0,0,1-1.43,3.2,5.35,5.35,0,0,1-6.84,0A4,4,0,0,1,288.82,74.19Zm4.08-5.55h1.58V66.47c0-.79-.27-1.19-.81-1.19s-.77.4-.77,1.19Z" style="fill:#6e6e71"/><path d="M300.38,78.27V62.58h4.05v1.27a2.63,2.63,0,0,1,2.18-1.5,7.85,7.85,0,0,1,1.1.12v3.41c-.75-.08-1.28-.12-1.58-.12a1.58,1.58,0,0,0-1.27.52,2.23,2.23,0,0,0-.43,1.46V78.27Z" style="fill:#6e6e71"/></g></g></svg>