<?xml version="1.0" encoding="utf-8"?>
<!-- Generator: Adobe Illustrator 23.0.2, SVG Export Plug-In . SVG Version: 6.00 Build 0)  -->
<svg version="1.1" id="ico-map" xmlns="http://www.w3.org/2000/svg" xmlns:xlink="http://www.w3.org/1999/xlink" x="0px" y="0px"
	 viewBox="0 0 38 35.1" style="enable-background:new 0 0 38 35.1;" xml:space="preserve">
<path id="Tracé_248" d="M38,35.1c-1.2-1-2.4-2-3.7-3c-1.8-1.4-3.5-2.9-5.2-4.3c-0.1-0.1-0.2-0.3-0.2-0.5c0-5,0-9.9,0-14.9
	c0,0,0-0.1,0-0.2l9.1,7.5L38,35.1z"/>
<path id="Tracé_249" d="M0,19.7l8-6.5l1-0.8c0,0.1,0,0.2,0,0.3c0,4.9,0,9.9,0,14.8c0,0.2-0.1,0.3-0.2,0.4c-2.9,2.4-5.8,4.8-8.7,7.2
	c0,0-0.1,0.1-0.1,0.1V19.7z"/>
<path id="Tracé_250" d="M9.7,12.3l3.4,2.8c1.7,1.4,3.5,2.9,5.2,4.3c0.2,0.2,0.4,0.4,0.4,0.7c0,4.8,0,9.7,0,14.5v0.5
	c-0.1-0.1-0.2-0.2-0.3-0.2c-2.8-2.3-5.6-4.6-8.4-6.9c-0.1-0.1-0.2-0.3-0.3-0.5c0-5,0-9.9,0-14.9C9.7,12.5,9.7,12.4,9.7,12.3z"/>
<path id="Tracé_251" d="M19.4,35c0-0.2,0-0.3,0-0.4c0-4.9,0-9.7,0-14.6c0-0.2,0.1-0.4,0.2-0.5c2.8-2.3,5.6-4.6,8.4-6.9
	c0,0,0.1-0.1,0.2-0.1c0,0.1,0,0.2,0,0.3c0,4.9,0,9.8,0,14.8c0,0.2-0.1,0.3-0.2,0.5c-2.8,2.3-5.6,4.6-8.4,6.9
	C19.6,34.9,19.5,34.9,19.4,35z"/>
<path id="Tracé_252" d="M19.7,15.8c-0.1-0.1-0.2-0.2-0.2-0.3c-1.5-2.2-3-4.3-4.5-6.5c-1.8-2.6-1.2-6.2,1.4-8c2.6-1.8,6.2-1.2,8,1.4
	c0.5,0.7,0.8,1.5,1,2.4c0.3,1.5-0.1,3-1,4.2c-1.5,2.1-3,4.3-4.5,6.4C19.9,15.6,19.8,15.7,19.7,15.8z M22.5,5.8
	c0-1.6-1.3-2.9-2.9-2.9c-1.6,0-2.9,1.3-2.9,2.9c0,1.6,1.3,2.9,2.9,2.9c0,0,0,0,0,0C21.2,8.6,22.5,7.3,22.5,5.8L22.5,5.8z"/>
</svg>
