<?xml version="1.0" encoding="utf-8"?>
<!-- Generator: Adobe Illustrator 23.0.2, SVG Export Plug-In . SVG Version: 6.00 Build 0)  -->
<svg version="1.1" id="Calque_1" xmlns="http://www.w3.org/2000/svg" xmlns:xlink="http://www.w3.org/1999/xlink" x="0px" y="0px"
	 viewBox="0 0 40 35.2" style="enable-background:new 0 0 40 35.2;" xml:space="preserve">
<style type="text/css">
	.st0{fill:#8EC549;}
</style>
<path class="st0" d="M35.7,25.8v-7.7h-0.5h-0.5H20.5V9.4c2.4-0.3,4.2-2.2,4.2-4.7C24.7,2.1,22.6,0,20,0c-2.6,0-4.7,2.1-4.7,4.7
	c0,2.4,1.9,4.4,4.2,4.7v8.7H5.2H4.7H4.2v7.6h0.5c-2.6,0-4.7,2.1-4.7,4.7c0,2.6,2.1,4.7,4.7,4.7c2.6,0,4.7-2.1,4.7-4.7
	c0-2.6-2.1-4.7-4.7-4.7h0.5v-6.6h14.2v6.7c-2.4,0.3-4.2,2.2-4.2,4.7c0,2.6,2.1,4.7,4.7,4.7c2.6,0,4.7-2.1,4.7-4.7
	c0-2.4-1.9-4.4-4.2-4.7v-6.7h14.2v6.7c-2.4,0.3-4.2,2.2-4.2,4.7c0,2.6,2.1,4.7,4.7,4.7s4.7-2.1,4.7-4.7C40,28,38.1,26,35.7,25.8z"/>
</svg>
